<?xml version="1.0" encoding="utf-8"?>
<!-- Generator: Adobe Illustrator 22.0.1, SVG Export Plug-In . SVG Version: 6.00 Build 0)  -->
<svg version="1.1" id="レイヤー_1" xmlns="http://www.w3.org/2000/svg" xmlns:xlink="http://www.w3.org/1999/xlink" x="0px"
	 y="0px" viewBox="0 0 841.9 595.3" style="enable-background:new 0 0 841.9 595.3;" xml:space="preserve">
<style type="text/css">
	.st0{fill:#FFFFFF;}
</style>
<g>
	<path class="st0" d="M194.2,333.1c22.8-36.2,45.6-72.5,72.6-105.6c23.2-28.4,52.6-56,89.2-59c5.9-0.5,12.2-0.2,17.2,3
		c6.4,4,9.3,11.7,11.6,18.9c7.7,23.5,14.2,47.6,26.2,69.2c5.3,9.7,12.1,19.1,21.8,24.3c10.9,5.9,24.3,5.7,36,1.7
		c11.7-4,21.9-11.4,31.3-19.5c36.4-31.7,61.1-74.6,85-116.5"/>
	<g>
		<path class="st0" d="M209.3,341.9c11.7-18.6,23.4-37.3,35.8-55.5c6-8.9,12.1-17.6,18.4-26.2c6.5-8.9,10.9-14.6,18.2-23.4
			c6-7.2,12.2-14.1,18.9-20.6c3.1-3,6.2-5.8,9.5-8.6c1-0.9,2.1-1.7,3.1-2.5c2.1-1.8-2,1.4,0.2-0.2c1.9-1.4,3.8-2.8,5.7-4.1
			c3.6-2.5,7.4-4.8,11.3-6.8c2-1.1,4.1-2.1,6.2-3c-0.6,0.3-3.1,1.2,0.1,0c1.2-0.5,2.4-0.9,3.6-1.3c4.1-1.4,8.3-2.4,12.6-3.3
			c3.3-0.7,0.7-0.2,0-0.1c1-0.1,2.1-0.2,3.1-0.3c1.1-0.1,2.2-0.2,3.3-0.2c0.4,0,5.6,0.4,1.8-0.2c1.1,0.2,2.1,0.5,3.1,0.7
			c-2.5-0.6-0.7-0.4,0.2,0.2c-2.7-1.9-1-0.8-0.3-0.1c2.2,2.3,0.2,0.3-0.1-0.3c0.6,1,1.2,2,1.8,3c0.3,0.5,1.5,3.2,0.6,1.2
			c-0.9-2.1,0.2,0.8,0.4,1.3c0.4,1.1,0.8,2.3,1.2,3.4c3.4,10.3,6.5,20.7,10,31c7,20.5,15.1,41.5,28.9,58.5
			c15.1,18.5,38.9,24.8,61.7,19.3c21-5.1,38.7-19.9,53.8-34.7c32.4-31.8,55.4-71.7,77.8-110.8c4.5-8,2.1-19.5-6.3-23.9
			c-8.3-4.4-19.1-2.2-23.9,6.3c-9.9,17.3-19.8,34.7-30.7,51.4c-5.3,8.1-10.8,16.1-16.6,23.8c-0.7,0.9-1.4,1.8-2.1,2.7
			c1.7-2.3-0.5,0.6-0.9,1.1c-1.4,1.8-2.8,3.5-4.3,5.3c-3.3,3.9-6.6,7.7-10.1,11.5c-6.7,7.2-13.9,14.1-21.5,20.4
			c-0.9,0.7-1.7,1.4-2.6,2.1c2.1-1.6-0.2,0.1-0.5,0.3c-1.9,1.3-3.7,2.6-5.6,3.8c-2.1,1.3-4.3,2.6-6.6,3.7c-0.4,0.2-3.5,1.7-1.7,0.9
			c1.8-0.8-2.2,0.8-2.6,1c-2.4,0.8-4.9,1.2-7.4,1.9c-2.6,0.8,2.4,0-0.4,0.1c-1.1,0-2.3,0.2-3.4,0.2c-1.4,0-2.8,0-4.2-0.1
			c-0.8,0-3.2-0.7-0.3,0c-1.1-0.3-2.2-0.4-3.3-0.7c-0.4-0.1-4.4-1.5-2.6-0.8c2.1,0.9-2.5-1.4-2.3-1.3c-0.9-0.5-1.8-1.1-2.6-1.7
			c2.8,1.9-1.8-1.8-2.4-2.4c-0.5-0.5-4.4-5.1-2.4-2.5c-1.6-2.1-3-4.3-4.4-6.6c-2.4-3.9-4.5-8-6.5-12.1c-1.2-2.4-2.3-4.9-3.4-7.4
			c-1.2-2.8,0.8,2-0.3-0.8c-0.6-1.4-1.1-2.8-1.7-4.2c-3.9-10.1-7.2-20.5-10.5-30.8c-3-9.6-5.6-19.8-10.5-28.6
			c-6.2-11.2-16.6-17.9-29.2-19.6c-19.9-2.7-41.6,5.2-58.5,15.1c-16.7,9.9-31.4,23.3-44.3,37.8c-32.6,36.5-58.6,78.7-84.6,120
			c-4.9,7.8-1.9,19.6,6.3,23.9C194,352.8,204.1,350.2,209.3,341.9L209.3,341.9z"/>
	</g>
</g>
</svg>
