<svg id="_10" data-name=" 10" xmlns="http://www.w3.org/2000/svg" viewBox="0 0 401.13 429.92"><defs><style>.cls-1{fill:#fff;}</style></defs><title>tap</title><path class="cls-1" d="M378.24,166c-4.87-23.17-16.92-36.16-26.17-43a58,58,0,0,0-46.2-10.24h-.12l-.26.05A56.5,56.5,0,0,0,286,121a57.3,57.3,0,0,0-28.89-1.25H257l-.27.06a57.91,57.91,0,0,0-23,10.56,57.71,57.71,0,0,0-28-1h-.12l-.26.06a61.36,61.36,0,0,0-6.93,1.94L166.26,49.86l-.1-.25-.1-.26C151.49,14.06,121.54-5.27,91.54,1.25h0a53.6,53.6,0,0,0-6.36,1.8C58.67,12.41,36,41.73,49,84l.11.37.12.37,27.63,84,16.73,51.15-12.21-5-1-.39-1-.32a110,110,0,0,0-15.38-4l-.62-.11a76.44,76.44,0,0,0-13.25-1.19h-.29c-2,0-3.94.11-5.84.3a10.25,10.25,0,0,0-1.24.16c-1.71.2-3.47.3-5.11.66A46.86,46.86,0,0,0,1,247.05c-7,35.35,24.78,78.61,50.38,96.25,21.92,15.1,47.63,23,76.67,23.55,32.38,50.43,93.5,73.27,162.54,58.77l1.28-.28C373.72,407.56,415,340.73,397,255.09Zm-94,224.21-1,.22c-61.81,13-113.46-10.61-133.81-60.34-.48-1.18-41.29,8.61-77.56-16.38-24-16.56-50.1-63.35-26.53-68.47,5.06-1.1,12.4-.28,22.53,3.17L119,269.08l33.09,13.5v-.12l.19.08-68.78-209c-6-19.77,1.85-32.22,13.76-36.42a15.27,15.27,0,0,1,2-.58c11.23-2.43,25.26,6.54,33.56,26.64l52.29,132.66,9.45-2c-1-16.31,7.86-26.85,18.44-29.15h.15c10.57-2.22,23,3.85,28.75,19.23l4-.83c-.8-15.66,8-25.76,18.4-28h.15c10-2.1,22.21,3,27.86,18.3l3.6-.75c-.32-13.68,7.73-22.52,17.18-24.58h.14c11.24-2.35,25.32,4.54,29.7,25.35l18.72,89.17c14,66.3-15,114-77.47,127.54Z" transform="translate(-0.03 0)"/></svg>